<mxfile host="65bd71144e">
    <diagram name="Page-1" id="7tJO3KEdiXzlP7OfvB3-">
        <mxGraphModel dx="1970" dy="828" grid="1" gridSize="10" guides="1" tooltips="1" connect="1" arrows="1" fold="1" page="1" pageScale="1" pageWidth="827" pageHeight="1169" math="0" shadow="0">
            <root>
                <mxCell id="0"/>
                <mxCell id="1" parent="0"/>
                <mxCell id="xM1EwzCcll2f1tDaZkVR-1" value="&lt;span&gt;comments&lt;/span&gt;" style="shape=table;startSize=30;container=1;collapsible=1;childLayout=tableLayout;fixedRows=1;rowLines=0;fontStyle=1;align=center;resizeLast=1;html=1;labelBackgroundColor=none;fillColor=#F2CC8F;strokeColor=#E07A5F;fontColor=#393C56;" parent="1" vertex="1">
                    <mxGeometry x="-110" y="90" width="180" height="180" as="geometry"/>
                </mxCell>
                <mxCell id="xM1EwzCcll2f1tDaZkVR-2" value="" style="shape=tableRow;horizontal=0;startSize=0;swimlaneHead=0;swimlaneBody=0;fillColor=none;collapsible=0;dropTarget=0;points=[[0,0.5],[1,0.5]];portConstraint=eastwest;top=0;left=0;right=0;bottom=1;labelBackgroundColor=none;strokeColor=#E07A5F;fontColor=#393C56;" parent="xM1EwzCcll2f1tDaZkVR-1" vertex="1">
                    <mxGeometry y="30" width="180" height="30" as="geometry"/>
                </mxCell>
                <mxCell id="xM1EwzCcll2f1tDaZkVR-3" value="PK" style="shape=partialRectangle;connectable=0;fillColor=none;top=0;left=0;bottom=0;right=0;fontStyle=1;overflow=hidden;whiteSpace=wrap;html=1;labelBackgroundColor=none;strokeColor=#E07A5F;fontColor=#393C56;" parent="xM1EwzCcll2f1tDaZkVR-2" vertex="1">
                    <mxGeometry width="30" height="30" as="geometry">
                        <mxRectangle width="30" height="30" as="alternateBounds"/>
                    </mxGeometry>
                </mxCell>
                <mxCell id="xM1EwzCcll2f1tDaZkVR-4" value="UniqueID" style="shape=partialRectangle;connectable=0;fillColor=none;top=0;left=0;bottom=0;right=0;align=left;spacingLeft=6;fontStyle=5;overflow=hidden;whiteSpace=wrap;html=1;labelBackgroundColor=none;strokeColor=#E07A5F;fontColor=#393C56;" parent="xM1EwzCcll2f1tDaZkVR-2" vertex="1">
                    <mxGeometry x="30" width="150" height="30" as="geometry">
                        <mxRectangle width="150" height="30" as="alternateBounds"/>
                    </mxGeometry>
                </mxCell>
                <mxCell id="xM1EwzCcll2f1tDaZkVR-5" value="" style="shape=tableRow;horizontal=0;startSize=0;swimlaneHead=0;swimlaneBody=0;fillColor=none;collapsible=0;dropTarget=0;points=[[0,0.5],[1,0.5]];portConstraint=eastwest;top=0;left=0;right=0;bottom=0;labelBackgroundColor=none;strokeColor=#E07A5F;fontColor=#393C56;" parent="xM1EwzCcll2f1tDaZkVR-1" vertex="1">
                    <mxGeometry y="60" width="180" height="30" as="geometry"/>
                </mxCell>
                <mxCell id="xM1EwzCcll2f1tDaZkVR-6" value="FK" style="shape=partialRectangle;connectable=0;fillColor=none;top=0;left=0;bottom=0;right=0;editable=1;overflow=hidden;whiteSpace=wrap;html=1;labelBackgroundColor=none;strokeColor=#E07A5F;fontColor=#393C56;" parent="xM1EwzCcll2f1tDaZkVR-5" vertex="1">
                    <mxGeometry width="30" height="30" as="geometry">
                        <mxRectangle width="30" height="30" as="alternateBounds"/>
                    </mxGeometry>
                </mxCell>
                <mxCell id="xM1EwzCcll2f1tDaZkVR-7" value="recipe_id&amp;nbsp; &amp;nbsp; &amp;nbsp; &amp;nbsp; &amp;nbsp;int" style="shape=partialRectangle;connectable=0;fillColor=none;top=0;left=0;bottom=0;right=0;align=left;spacingLeft=6;overflow=hidden;whiteSpace=wrap;html=1;labelBackgroundColor=none;strokeColor=#E07A5F;fontColor=#393C56;" parent="xM1EwzCcll2f1tDaZkVR-5" vertex="1">
                    <mxGeometry x="30" width="150" height="30" as="geometry">
                        <mxRectangle width="150" height="30" as="alternateBounds"/>
                    </mxGeometry>
                </mxCell>
                <mxCell id="xM1EwzCcll2f1tDaZkVR-8" value="" style="shape=tableRow;horizontal=0;startSize=0;swimlaneHead=0;swimlaneBody=0;fillColor=none;collapsible=0;dropTarget=0;points=[[0,0.5],[1,0.5]];portConstraint=eastwest;top=0;left=0;right=0;bottom=0;labelBackgroundColor=none;strokeColor=#E07A5F;fontColor=#393C56;" parent="xM1EwzCcll2f1tDaZkVR-1" vertex="1">
                    <mxGeometry y="90" width="180" height="30" as="geometry"/>
                </mxCell>
                <mxCell id="xM1EwzCcll2f1tDaZkVR-9" value="FK" style="shape=partialRectangle;connectable=0;fillColor=none;top=0;left=0;bottom=0;right=0;editable=1;overflow=hidden;whiteSpace=wrap;html=1;labelBackgroundColor=none;strokeColor=#E07A5F;fontColor=#393C56;" parent="xM1EwzCcll2f1tDaZkVR-8" vertex="1">
                    <mxGeometry width="30" height="30" as="geometry">
                        <mxRectangle width="30" height="30" as="alternateBounds"/>
                    </mxGeometry>
                </mxCell>
                <mxCell id="xM1EwzCcll2f1tDaZkVR-10" value="user_id&amp;nbsp; &amp;nbsp; &amp;nbsp; &amp;nbsp; &amp;nbsp; &amp;nbsp; int" style="shape=partialRectangle;connectable=0;fillColor=none;top=0;left=0;bottom=0;right=0;align=left;spacingLeft=6;overflow=hidden;whiteSpace=wrap;html=1;labelBackgroundColor=none;strokeColor=#E07A5F;fontColor=#393C56;" parent="xM1EwzCcll2f1tDaZkVR-8" vertex="1">
                    <mxGeometry x="30" width="150" height="30" as="geometry">
                        <mxRectangle width="150" height="30" as="alternateBounds"/>
                    </mxGeometry>
                </mxCell>
                <mxCell id="xM1EwzCcll2f1tDaZkVR-11" value="" style="shape=tableRow;horizontal=0;startSize=0;swimlaneHead=0;swimlaneBody=0;fillColor=none;collapsible=0;dropTarget=0;points=[[0,0.5],[1,0.5]];portConstraint=eastwest;top=0;left=0;right=0;bottom=0;labelBackgroundColor=none;strokeColor=#E07A5F;fontColor=#393C56;" parent="xM1EwzCcll2f1tDaZkVR-1" vertex="1">
                    <mxGeometry y="120" width="180" height="30" as="geometry"/>
                </mxCell>
                <mxCell id="xM1EwzCcll2f1tDaZkVR-12" value="" style="shape=partialRectangle;connectable=0;fillColor=none;top=0;left=0;bottom=0;right=0;editable=1;overflow=hidden;whiteSpace=wrap;html=1;labelBackgroundColor=none;strokeColor=#E07A5F;fontColor=#393C56;" parent="xM1EwzCcll2f1tDaZkVR-11" vertex="1">
                    <mxGeometry width="30" height="30" as="geometry">
                        <mxRectangle width="30" height="30" as="alternateBounds"/>
                    </mxGeometry>
                </mxCell>
                <mxCell id="xM1EwzCcll2f1tDaZkVR-13" value="content&amp;nbsp; &amp;nbsp; &amp;nbsp; &amp;nbsp; &amp;nbsp; &amp;nbsp;text" style="shape=partialRectangle;connectable=0;fillColor=none;top=0;left=0;bottom=0;right=0;align=left;spacingLeft=6;overflow=hidden;whiteSpace=wrap;html=1;labelBackgroundColor=none;strokeColor=#E07A5F;fontColor=#393C56;" parent="xM1EwzCcll2f1tDaZkVR-11" vertex="1">
                    <mxGeometry x="30" width="150" height="30" as="geometry">
                        <mxRectangle width="150" height="30" as="alternateBounds"/>
                    </mxGeometry>
                </mxCell>
                <mxCell id="xM1EwzCcll2f1tDaZkVR-14" style="shape=tableRow;horizontal=0;startSize=0;swimlaneHead=0;swimlaneBody=0;fillColor=none;collapsible=0;dropTarget=0;points=[[0,0.5],[1,0.5]];portConstraint=eastwest;top=0;left=0;right=0;bottom=0;labelBackgroundColor=none;strokeColor=#E07A5F;fontColor=#393C56;" parent="xM1EwzCcll2f1tDaZkVR-1" vertex="1">
                    <mxGeometry y="150" width="180" height="30" as="geometry"/>
                </mxCell>
                <mxCell id="xM1EwzCcll2f1tDaZkVR-15" style="shape=partialRectangle;connectable=0;fillColor=none;top=0;left=0;bottom=0;right=0;editable=1;overflow=hidden;whiteSpace=wrap;html=1;labelBackgroundColor=none;strokeColor=#E07A5F;fontColor=#393C56;" parent="xM1EwzCcll2f1tDaZkVR-14" vertex="1">
                    <mxGeometry width="30" height="30" as="geometry">
                        <mxRectangle width="30" height="30" as="alternateBounds"/>
                    </mxGeometry>
                </mxCell>
                <mxCell id="xM1EwzCcll2f1tDaZkVR-16" value="created_at&amp;nbsp; &amp;nbsp; &amp;nbsp;timestamp" style="shape=partialRectangle;connectable=0;fillColor=none;top=0;left=0;bottom=0;right=0;align=left;spacingLeft=6;overflow=hidden;whiteSpace=wrap;html=1;labelBackgroundColor=none;strokeColor=#E07A5F;fontColor=#393C56;" parent="xM1EwzCcll2f1tDaZkVR-14" vertex="1">
                    <mxGeometry x="30" width="150" height="30" as="geometry">
                        <mxRectangle width="150" height="30" as="alternateBounds"/>
                    </mxGeometry>
                </mxCell>
                <mxCell id="xM1EwzCcll2f1tDaZkVR-17" value="users" style="shape=table;startSize=30;container=1;collapsible=1;childLayout=tableLayout;fixedRows=1;rowLines=0;fontStyle=1;align=center;resizeLast=1;html=1;strokeColor=#E07A5F;fontColor=#393C56;fillColor=#F2CC8F;" parent="1" vertex="1">
                    <mxGeometry x="80" y="590" width="180" height="210" as="geometry"/>
                </mxCell>
                <mxCell id="xM1EwzCcll2f1tDaZkVR-18" value="" style="shape=tableRow;horizontal=0;startSize=0;swimlaneHead=0;swimlaneBody=0;fillColor=none;collapsible=0;dropTarget=0;points=[[0,0.5],[1,0.5]];portConstraint=eastwest;top=0;left=0;right=0;bottom=1;strokeColor=#E07A5F;fontColor=#393C56;" parent="xM1EwzCcll2f1tDaZkVR-17" vertex="1">
                    <mxGeometry y="30" width="180" height="30" as="geometry"/>
                </mxCell>
                <mxCell id="xM1EwzCcll2f1tDaZkVR-19" value="PK" style="shape=partialRectangle;connectable=0;fillColor=none;top=0;left=0;bottom=0;right=0;fontStyle=1;overflow=hidden;whiteSpace=wrap;html=1;strokeColor=#E07A5F;fontColor=#393C56;" parent="xM1EwzCcll2f1tDaZkVR-18" vertex="1">
                    <mxGeometry width="30" height="30" as="geometry">
                        <mxRectangle width="30" height="30" as="alternateBounds"/>
                    </mxGeometry>
                </mxCell>
                <mxCell id="xM1EwzCcll2f1tDaZkVR-20" value="UniqueID" style="shape=partialRectangle;connectable=0;fillColor=none;top=0;left=0;bottom=0;right=0;align=left;spacingLeft=6;fontStyle=5;overflow=hidden;whiteSpace=wrap;html=1;strokeColor=#E07A5F;fontColor=#393C56;" parent="xM1EwzCcll2f1tDaZkVR-18" vertex="1">
                    <mxGeometry x="30" width="150" height="30" as="geometry">
                        <mxRectangle width="150" height="30" as="alternateBounds"/>
                    </mxGeometry>
                </mxCell>
                <mxCell id="xM1EwzCcll2f1tDaZkVR-21" value="" style="shape=tableRow;horizontal=0;startSize=0;swimlaneHead=0;swimlaneBody=0;fillColor=none;collapsible=0;dropTarget=0;points=[[0,0.5],[1,0.5]];portConstraint=eastwest;top=0;left=0;right=0;bottom=0;strokeColor=#E07A5F;fontColor=#393C56;" parent="xM1EwzCcll2f1tDaZkVR-17" vertex="1">
                    <mxGeometry y="60" width="180" height="30" as="geometry"/>
                </mxCell>
                <mxCell id="xM1EwzCcll2f1tDaZkVR-22" value="" style="shape=partialRectangle;connectable=0;fillColor=none;top=0;left=0;bottom=0;right=0;editable=1;overflow=hidden;whiteSpace=wrap;html=1;strokeColor=#E07A5F;fontColor=#393C56;" parent="xM1EwzCcll2f1tDaZkVR-21" vertex="1">
                    <mxGeometry width="30" height="30" as="geometry">
                        <mxRectangle width="30" height="30" as="alternateBounds"/>
                    </mxGeometry>
                </mxCell>
                <mxCell id="xM1EwzCcll2f1tDaZkVR-23" value="firstname&amp;nbsp; &amp;nbsp; varchar(50)" style="shape=partialRectangle;connectable=0;fillColor=none;top=0;left=0;bottom=0;right=0;align=left;spacingLeft=6;overflow=hidden;whiteSpace=wrap;html=1;strokeColor=#E07A5F;fontColor=#393C56;" parent="xM1EwzCcll2f1tDaZkVR-21" vertex="1">
                    <mxGeometry x="30" width="150" height="30" as="geometry">
                        <mxRectangle width="150" height="30" as="alternateBounds"/>
                    </mxGeometry>
                </mxCell>
                <mxCell id="xM1EwzCcll2f1tDaZkVR-24" value="" style="shape=tableRow;horizontal=0;startSize=0;swimlaneHead=0;swimlaneBody=0;fillColor=none;collapsible=0;dropTarget=0;points=[[0,0.5],[1,0.5]];portConstraint=eastwest;top=0;left=0;right=0;bottom=0;strokeColor=#E07A5F;fontColor=#393C56;" parent="xM1EwzCcll2f1tDaZkVR-17" vertex="1">
                    <mxGeometry y="90" width="180" height="30" as="geometry"/>
                </mxCell>
                <mxCell id="xM1EwzCcll2f1tDaZkVR-25" value="" style="shape=partialRectangle;connectable=0;fillColor=none;top=0;left=0;bottom=0;right=0;editable=1;overflow=hidden;whiteSpace=wrap;html=1;strokeColor=#E07A5F;fontColor=#393C56;" parent="xM1EwzCcll2f1tDaZkVR-24" vertex="1">
                    <mxGeometry width="30" height="30" as="geometry">
                        <mxRectangle width="30" height="30" as="alternateBounds"/>
                    </mxGeometry>
                </mxCell>
                <mxCell id="xM1EwzCcll2f1tDaZkVR-26" value="lastname&amp;nbsp; &amp;nbsp; varchar(50)" style="shape=partialRectangle;connectable=0;fillColor=none;top=0;left=0;bottom=0;right=0;align=left;spacingLeft=6;overflow=hidden;whiteSpace=wrap;html=1;strokeColor=#E07A5F;fontColor=#393C56;" parent="xM1EwzCcll2f1tDaZkVR-24" vertex="1">
                    <mxGeometry x="30" width="150" height="30" as="geometry">
                        <mxRectangle width="150" height="30" as="alternateBounds"/>
                    </mxGeometry>
                </mxCell>
                <mxCell id="xM1EwzCcll2f1tDaZkVR-27" value="" style="shape=tableRow;horizontal=0;startSize=0;swimlaneHead=0;swimlaneBody=0;fillColor=none;collapsible=0;dropTarget=0;points=[[0,0.5],[1,0.5]];portConstraint=eastwest;top=0;left=0;right=0;bottom=0;strokeColor=#E07A5F;fontColor=#393C56;" parent="xM1EwzCcll2f1tDaZkVR-17" vertex="1">
                    <mxGeometry y="120" width="180" height="30" as="geometry"/>
                </mxCell>
                <mxCell id="xM1EwzCcll2f1tDaZkVR-28" value="" style="shape=partialRectangle;connectable=0;fillColor=none;top=0;left=0;bottom=0;right=0;editable=1;overflow=hidden;whiteSpace=wrap;html=1;strokeColor=#E07A5F;fontColor=#393C56;" parent="xM1EwzCcll2f1tDaZkVR-27" vertex="1">
                    <mxGeometry width="30" height="30" as="geometry">
                        <mxRectangle width="30" height="30" as="alternateBounds"/>
                    </mxGeometry>
                </mxCell>
                <mxCell id="xM1EwzCcll2f1tDaZkVR-29" value="email&amp;nbsp; &amp;nbsp; &amp;nbsp; &amp;nbsp; &amp;nbsp; varchar(255)" style="shape=partialRectangle;connectable=0;fillColor=none;top=0;left=0;bottom=0;right=0;align=left;spacingLeft=6;overflow=hidden;whiteSpace=wrap;html=1;strokeColor=#E07A5F;fontColor=#393C56;" parent="xM1EwzCcll2f1tDaZkVR-27" vertex="1">
                    <mxGeometry x="30" width="150" height="30" as="geometry">
                        <mxRectangle width="150" height="30" as="alternateBounds"/>
                    </mxGeometry>
                </mxCell>
                <mxCell id="xM1EwzCcll2f1tDaZkVR-33" style="shape=tableRow;horizontal=0;startSize=0;swimlaneHead=0;swimlaneBody=0;fillColor=none;collapsible=0;dropTarget=0;points=[[0,0.5],[1,0.5]];portConstraint=eastwest;top=0;left=0;right=0;bottom=0;strokeColor=#E07A5F;fontColor=#393C56;" parent="xM1EwzCcll2f1tDaZkVR-17" vertex="1">
                    <mxGeometry y="150" width="180" height="30" as="geometry"/>
                </mxCell>
                <mxCell id="xM1EwzCcll2f1tDaZkVR-34" style="shape=partialRectangle;connectable=0;fillColor=none;top=0;left=0;bottom=0;right=0;editable=1;overflow=hidden;whiteSpace=wrap;html=1;strokeColor=#E07A5F;fontColor=#393C56;" parent="xM1EwzCcll2f1tDaZkVR-33" vertex="1">
                    <mxGeometry width="30" height="30" as="geometry">
                        <mxRectangle width="30" height="30" as="alternateBounds"/>
                    </mxGeometry>
                </mxCell>
                <mxCell id="xM1EwzCcll2f1tDaZkVR-35" value="password&amp;nbsp; &amp;nbsp;varchar(255)" style="shape=partialRectangle;connectable=0;fillColor=none;top=0;left=0;bottom=0;right=0;align=left;spacingLeft=6;overflow=hidden;whiteSpace=wrap;html=1;strokeColor=#E07A5F;fontColor=#393C56;" parent="xM1EwzCcll2f1tDaZkVR-33" vertex="1">
                    <mxGeometry x="30" width="150" height="30" as="geometry">
                        <mxRectangle width="150" height="30" as="alternateBounds"/>
                    </mxGeometry>
                </mxCell>
                <mxCell id="xM1EwzCcll2f1tDaZkVR-30" style="shape=tableRow;horizontal=0;startSize=0;swimlaneHead=0;swimlaneBody=0;fillColor=none;collapsible=0;dropTarget=0;points=[[0,0.5],[1,0.5]];portConstraint=eastwest;top=0;left=0;right=0;bottom=0;strokeColor=#E07A5F;fontColor=#393C56;" parent="xM1EwzCcll2f1tDaZkVR-17" vertex="1">
                    <mxGeometry y="180" width="180" height="30" as="geometry"/>
                </mxCell>
                <mxCell id="xM1EwzCcll2f1tDaZkVR-31" style="shape=partialRectangle;connectable=0;fillColor=none;top=0;left=0;bottom=0;right=0;editable=1;overflow=hidden;whiteSpace=wrap;html=1;strokeColor=#E07A5F;fontColor=#393C56;" parent="xM1EwzCcll2f1tDaZkVR-30" vertex="1">
                    <mxGeometry width="30" height="30" as="geometry">
                        <mxRectangle width="30" height="30" as="alternateBounds"/>
                    </mxGeometry>
                </mxCell>
                <mxCell id="xM1EwzCcll2f1tDaZkVR-32" value="created_at&amp;nbsp; timestamp" style="shape=partialRectangle;connectable=0;fillColor=none;top=0;left=0;bottom=0;right=0;align=left;spacingLeft=6;overflow=hidden;whiteSpace=wrap;html=1;strokeColor=#E07A5F;fontColor=#393C56;" parent="xM1EwzCcll2f1tDaZkVR-30" vertex="1">
                    <mxGeometry x="30" width="150" height="30" as="geometry">
                        <mxRectangle width="150" height="30" as="alternateBounds"/>
                    </mxGeometry>
                </mxCell>
                <mxCell id="xM1EwzCcll2f1tDaZkVR-39" value="favorites" style="shape=table;startSize=30;container=1;collapsible=1;childLayout=tableLayout;fixedRows=1;rowLines=0;fontStyle=1;align=center;resizeLast=1;html=1;strokeColor=#E07A5F;fontColor=#393C56;fillColor=#F2CC8F;" parent="1" vertex="1">
                    <mxGeometry x="400" y="380" width="180" height="120" as="geometry"/>
                </mxCell>
                <mxCell id="xM1EwzCcll2f1tDaZkVR-43" value="" style="shape=tableRow;horizontal=0;startSize=0;swimlaneHead=0;swimlaneBody=0;fillColor=none;collapsible=0;dropTarget=0;points=[[0,0.5],[1,0.5]];portConstraint=eastwest;top=0;left=0;right=0;bottom=0;strokeColor=#E07A5F;fontColor=#393C56;" parent="xM1EwzCcll2f1tDaZkVR-39" vertex="1">
                    <mxGeometry y="30" width="180" height="30" as="geometry"/>
                </mxCell>
                <mxCell id="xM1EwzCcll2f1tDaZkVR-44" value="FK" style="shape=partialRectangle;connectable=0;fillColor=none;top=0;left=0;bottom=0;right=0;editable=1;overflow=hidden;whiteSpace=wrap;html=1;strokeColor=#E07A5F;fontColor=#393C56;" parent="xM1EwzCcll2f1tDaZkVR-43" vertex="1">
                    <mxGeometry width="30" height="30" as="geometry">
                        <mxRectangle width="30" height="30" as="alternateBounds"/>
                    </mxGeometry>
                </mxCell>
                <mxCell id="xM1EwzCcll2f1tDaZkVR-45" value="recipe_id&amp;nbsp; &amp;nbsp; &amp;nbsp; &amp;nbsp;int" style="shape=partialRectangle;connectable=0;fillColor=none;top=0;left=0;bottom=0;right=0;align=left;spacingLeft=6;overflow=hidden;whiteSpace=wrap;html=1;strokeColor=#E07A5F;fontColor=#393C56;" parent="xM1EwzCcll2f1tDaZkVR-43" vertex="1">
                    <mxGeometry x="30" width="150" height="30" as="geometry">
                        <mxRectangle width="150" height="30" as="alternateBounds"/>
                    </mxGeometry>
                </mxCell>
                <mxCell id="xM1EwzCcll2f1tDaZkVR-46" value="" style="shape=tableRow;horizontal=0;startSize=0;swimlaneHead=0;swimlaneBody=0;fillColor=none;collapsible=0;dropTarget=0;points=[[0,0.5],[1,0.5]];portConstraint=eastwest;top=0;left=0;right=0;bottom=0;strokeColor=#E07A5F;fontColor=#393C56;" parent="xM1EwzCcll2f1tDaZkVR-39" vertex="1">
                    <mxGeometry y="60" width="180" height="30" as="geometry"/>
                </mxCell>
                <mxCell id="xM1EwzCcll2f1tDaZkVR-47" value="" style="shape=partialRectangle;connectable=0;fillColor=none;top=0;left=0;bottom=0;right=0;editable=1;overflow=hidden;whiteSpace=wrap;html=1;strokeColor=#E07A5F;fontColor=#393C56;" parent="xM1EwzCcll2f1tDaZkVR-46" vertex="1">
                    <mxGeometry width="30" height="30" as="geometry">
                        <mxRectangle width="30" height="30" as="alternateBounds"/>
                    </mxGeometry>
                </mxCell>
                <mxCell id="xM1EwzCcll2f1tDaZkVR-48" value="created_at&amp;nbsp; &amp;nbsp; &amp;nbsp;timestamp" style="shape=partialRectangle;connectable=0;fillColor=none;top=0;left=0;bottom=0;right=0;align=left;spacingLeft=6;overflow=hidden;whiteSpace=wrap;html=1;strokeColor=#E07A5F;fontColor=#393C56;" parent="xM1EwzCcll2f1tDaZkVR-46" vertex="1">
                    <mxGeometry x="30" width="150" height="30" as="geometry">
                        <mxRectangle width="150" height="30" as="alternateBounds"/>
                    </mxGeometry>
                </mxCell>
                <mxCell id="15" style="shape=tableRow;horizontal=0;startSize=0;swimlaneHead=0;swimlaneBody=0;fillColor=none;collapsible=0;dropTarget=0;points=[[0,0.5],[1,0.5]];portConstraint=eastwest;top=0;left=0;right=0;bottom=0;strokeColor=#E07A5F;fontColor=#393C56;" vertex="1" parent="xM1EwzCcll2f1tDaZkVR-39">
                    <mxGeometry y="90" width="180" height="30" as="geometry"/>
                </mxCell>
                <mxCell id="16" value="FK" style="shape=partialRectangle;connectable=0;fillColor=none;top=0;left=0;bottom=0;right=0;editable=1;overflow=hidden;whiteSpace=wrap;html=1;strokeColor=#E07A5F;fontColor=#393C56;" vertex="1" parent="15">
                    <mxGeometry width="30" height="30" as="geometry">
                        <mxRectangle width="30" height="30" as="alternateBounds"/>
                    </mxGeometry>
                </mxCell>
                <mxCell id="17" value="user_id&amp;nbsp; &amp;nbsp; &amp;nbsp; &amp;nbsp; &amp;nbsp; int" style="shape=partialRectangle;connectable=0;fillColor=none;top=0;left=0;bottom=0;right=0;align=left;spacingLeft=6;overflow=hidden;whiteSpace=wrap;html=1;strokeColor=#E07A5F;fontColor=#393C56;" vertex="1" parent="15">
                    <mxGeometry x="30" width="150" height="30" as="geometry">
                        <mxRectangle width="150" height="30" as="alternateBounds"/>
                    </mxGeometry>
                </mxCell>
                <mxCell id="xM1EwzCcll2f1tDaZkVR-52" value="recipes" style="shape=table;startSize=30;container=1;collapsible=1;childLayout=tableLayout;fixedRows=1;rowLines=0;fontStyle=1;align=center;resizeLast=1;html=1;strokeColor=#E07A5F;fontColor=#393C56;fillColor=#F2CC8F;" parent="1" vertex="1">
                    <mxGeometry x="700" y="370" width="231" height="480" as="geometry"/>
                </mxCell>
                <mxCell id="xM1EwzCcll2f1tDaZkVR-53" value="" style="shape=tableRow;horizontal=0;startSize=0;swimlaneHead=0;swimlaneBody=0;fillColor=none;collapsible=0;dropTarget=0;points=[[0,0.5],[1,0.5]];portConstraint=eastwest;top=0;left=0;right=0;bottom=1;strokeColor=#E07A5F;fontColor=#393C56;" parent="xM1EwzCcll2f1tDaZkVR-52" vertex="1">
                    <mxGeometry y="30" width="231" height="30" as="geometry"/>
                </mxCell>
                <mxCell id="xM1EwzCcll2f1tDaZkVR-54" value="PK" style="shape=partialRectangle;connectable=0;fillColor=none;top=0;left=0;bottom=0;right=0;fontStyle=1;overflow=hidden;whiteSpace=wrap;html=1;strokeColor=#E07A5F;fontColor=#393C56;" parent="xM1EwzCcll2f1tDaZkVR-53" vertex="1">
                    <mxGeometry width="30" height="30" as="geometry">
                        <mxRectangle width="30" height="30" as="alternateBounds"/>
                    </mxGeometry>
                </mxCell>
                <mxCell id="xM1EwzCcll2f1tDaZkVR-55" value="UniqueID" style="shape=partialRectangle;connectable=0;fillColor=none;top=0;left=0;bottom=0;right=0;align=left;spacingLeft=6;fontStyle=5;overflow=hidden;whiteSpace=wrap;html=1;strokeColor=#E07A5F;fontColor=#393C56;" parent="xM1EwzCcll2f1tDaZkVR-53" vertex="1">
                    <mxGeometry x="30" width="201" height="30" as="geometry">
                        <mxRectangle width="201" height="30" as="alternateBounds"/>
                    </mxGeometry>
                </mxCell>
                <mxCell id="xM1EwzCcll2f1tDaZkVR-56" value="" style="shape=tableRow;horizontal=0;startSize=0;swimlaneHead=0;swimlaneBody=0;fillColor=none;collapsible=0;dropTarget=0;points=[[0,0.5],[1,0.5]];portConstraint=eastwest;top=0;left=0;right=0;bottom=0;strokeColor=#E07A5F;fontColor=#393C56;" parent="xM1EwzCcll2f1tDaZkVR-52" vertex="1">
                    <mxGeometry y="60" width="231" height="30" as="geometry"/>
                </mxCell>
                <mxCell id="xM1EwzCcll2f1tDaZkVR-57" value="" style="shape=partialRectangle;connectable=0;fillColor=none;top=0;left=0;bottom=0;right=0;editable=1;overflow=hidden;whiteSpace=wrap;html=1;strokeColor=#E07A5F;fontColor=#393C56;" parent="xM1EwzCcll2f1tDaZkVR-56" vertex="1">
                    <mxGeometry width="30" height="30" as="geometry">
                        <mxRectangle width="30" height="30" as="alternateBounds"/>
                    </mxGeometry>
                </mxCell>
                <mxCell id="xM1EwzCcll2f1tDaZkVR-58" value="slug&amp;nbsp; &amp;nbsp; &amp;nbsp; &amp;nbsp; &amp;nbsp;varchar(200)" style="shape=partialRectangle;connectable=0;fillColor=none;top=0;left=0;bottom=0;right=0;align=left;spacingLeft=6;overflow=hidden;whiteSpace=wrap;html=1;strokeColor=#E07A5F;fontColor=#393C56;" parent="xM1EwzCcll2f1tDaZkVR-56" vertex="1">
                    <mxGeometry x="30" width="201" height="30" as="geometry">
                        <mxRectangle width="201" height="30" as="alternateBounds"/>
                    </mxGeometry>
                </mxCell>
                <mxCell id="xM1EwzCcll2f1tDaZkVR-59" value="" style="shape=tableRow;horizontal=0;startSize=0;swimlaneHead=0;swimlaneBody=0;fillColor=none;collapsible=0;dropTarget=0;points=[[0,0.5],[1,0.5]];portConstraint=eastwest;top=0;left=0;right=0;bottom=0;strokeColor=#E07A5F;fontColor=#393C56;" parent="xM1EwzCcll2f1tDaZkVR-52" vertex="1">
                    <mxGeometry y="90" width="231" height="30" as="geometry"/>
                </mxCell>
                <mxCell id="xM1EwzCcll2f1tDaZkVR-60" value="FK" style="shape=partialRectangle;connectable=0;fillColor=none;top=0;left=0;bottom=0;right=0;editable=1;overflow=hidden;whiteSpace=wrap;html=1;strokeColor=#E07A5F;fontColor=#393C56;" parent="xM1EwzCcll2f1tDaZkVR-59" vertex="1">
                    <mxGeometry width="30" height="30" as="geometry">
                        <mxRectangle width="30" height="30" as="alternateBounds"/>
                    </mxGeometry>
                </mxCell>
                <mxCell id="xM1EwzCcll2f1tDaZkVR-61" value="user_id&amp;nbsp; &amp;nbsp; int" style="shape=partialRectangle;connectable=0;fillColor=none;top=0;left=0;bottom=0;right=0;align=left;spacingLeft=6;overflow=hidden;whiteSpace=wrap;html=1;strokeColor=#E07A5F;fontColor=#393C56;" parent="xM1EwzCcll2f1tDaZkVR-59" vertex="1">
                    <mxGeometry x="30" width="201" height="30" as="geometry">
                        <mxRectangle width="201" height="30" as="alternateBounds"/>
                    </mxGeometry>
                </mxCell>
                <mxCell id="xM1EwzCcll2f1tDaZkVR-62" value="" style="shape=tableRow;horizontal=0;startSize=0;swimlaneHead=0;swimlaneBody=0;fillColor=none;collapsible=0;dropTarget=0;points=[[0,0.5],[1,0.5]];portConstraint=eastwest;top=0;left=0;right=0;bottom=0;strokeColor=#E07A5F;fontColor=#393C56;" parent="xM1EwzCcll2f1tDaZkVR-52" vertex="1">
                    <mxGeometry y="120" width="231" height="30" as="geometry"/>
                </mxCell>
                <mxCell id="xM1EwzCcll2f1tDaZkVR-63" value="" style="shape=partialRectangle;connectable=0;fillColor=none;top=0;left=0;bottom=0;right=0;editable=1;overflow=hidden;whiteSpace=wrap;html=1;strokeColor=#E07A5F;fontColor=#393C56;" parent="xM1EwzCcll2f1tDaZkVR-62" vertex="1">
                    <mxGeometry width="30" height="30" as="geometry">
                        <mxRectangle width="30" height="30" as="alternateBounds"/>
                    </mxGeometry>
                </mxCell>
                <mxCell id="xM1EwzCcll2f1tDaZkVR-64" value="title&amp;nbsp; &amp;nbsp; &amp;nbsp; &amp;nbsp; &amp;nbsp; varchar(255)" style="shape=partialRectangle;connectable=0;fillColor=none;top=0;left=0;bottom=0;right=0;align=left;spacingLeft=6;overflow=hidden;whiteSpace=wrap;html=1;strokeColor=#E07A5F;fontColor=#393C56;" parent="xM1EwzCcll2f1tDaZkVR-62" vertex="1">
                    <mxGeometry x="30" width="201" height="30" as="geometry">
                        <mxRectangle width="201" height="30" as="alternateBounds"/>
                    </mxGeometry>
                </mxCell>
                <mxCell id="xM1EwzCcll2f1tDaZkVR-95" style="shape=tableRow;horizontal=0;startSize=0;swimlaneHead=0;swimlaneBody=0;fillColor=none;collapsible=0;dropTarget=0;points=[[0,0.5],[1,0.5]];portConstraint=eastwest;top=0;left=0;right=0;bottom=0;strokeColor=#E07A5F;fontColor=#393C56;" parent="xM1EwzCcll2f1tDaZkVR-52" vertex="1">
                    <mxGeometry y="150" width="231" height="30" as="geometry"/>
                </mxCell>
                <mxCell id="xM1EwzCcll2f1tDaZkVR-96" style="shape=partialRectangle;connectable=0;fillColor=none;top=0;left=0;bottom=0;right=0;editable=1;overflow=hidden;whiteSpace=wrap;html=1;strokeColor=#E07A5F;fontColor=#393C56;" parent="xM1EwzCcll2f1tDaZkVR-95" vertex="1">
                    <mxGeometry width="30" height="30" as="geometry">
                        <mxRectangle width="30" height="30" as="alternateBounds"/>
                    </mxGeometry>
                </mxCell>
                <mxCell id="xM1EwzCcll2f1tDaZkVR-97" value="description&amp;nbsp; &amp;nbsp; &amp;nbsp;text" style="shape=partialRectangle;connectable=0;fillColor=none;top=0;left=0;bottom=0;right=0;align=left;spacingLeft=6;overflow=hidden;whiteSpace=wrap;html=1;strokeColor=#E07A5F;fontColor=#393C56;" parent="xM1EwzCcll2f1tDaZkVR-95" vertex="1">
                    <mxGeometry x="30" width="201" height="30" as="geometry">
                        <mxRectangle width="201" height="30" as="alternateBounds"/>
                    </mxGeometry>
                </mxCell>
                <mxCell id="xM1EwzCcll2f1tDaZkVR-92" style="shape=tableRow;horizontal=0;startSize=0;swimlaneHead=0;swimlaneBody=0;fillColor=none;collapsible=0;dropTarget=0;points=[[0,0.5],[1,0.5]];portConstraint=eastwest;top=0;left=0;right=0;bottom=0;strokeColor=#E07A5F;fontColor=#393C56;" parent="xM1EwzCcll2f1tDaZkVR-52" vertex="1">
                    <mxGeometry y="180" width="231" height="30" as="geometry"/>
                </mxCell>
                <mxCell id="xM1EwzCcll2f1tDaZkVR-93" style="shape=partialRectangle;connectable=0;fillColor=none;top=0;left=0;bottom=0;right=0;editable=1;overflow=hidden;whiteSpace=wrap;html=1;strokeColor=#E07A5F;fontColor=#393C56;" parent="xM1EwzCcll2f1tDaZkVR-92" vertex="1">
                    <mxGeometry width="30" height="30" as="geometry">
                        <mxRectangle width="30" height="30" as="alternateBounds"/>
                    </mxGeometry>
                </mxCell>
                <mxCell id="xM1EwzCcll2f1tDaZkVR-94" value="ingredients&amp;nbsp; &amp;nbsp; &amp;nbsp;text" style="shape=partialRectangle;connectable=0;fillColor=none;top=0;left=0;bottom=0;right=0;align=left;spacingLeft=6;overflow=hidden;whiteSpace=wrap;html=1;strokeColor=#E07A5F;fontColor=#393C56;" parent="xM1EwzCcll2f1tDaZkVR-92" vertex="1">
                    <mxGeometry x="30" width="201" height="30" as="geometry">
                        <mxRectangle width="201" height="30" as="alternateBounds"/>
                    </mxGeometry>
                </mxCell>
                <mxCell id="xM1EwzCcll2f1tDaZkVR-89" style="shape=tableRow;horizontal=0;startSize=0;swimlaneHead=0;swimlaneBody=0;fillColor=none;collapsible=0;dropTarget=0;points=[[0,0.5],[1,0.5]];portConstraint=eastwest;top=0;left=0;right=0;bottom=0;strokeColor=#E07A5F;fontColor=#393C56;" parent="xM1EwzCcll2f1tDaZkVR-52" vertex="1">
                    <mxGeometry y="210" width="231" height="30" as="geometry"/>
                </mxCell>
                <mxCell id="xM1EwzCcll2f1tDaZkVR-90" style="shape=partialRectangle;connectable=0;fillColor=none;top=0;left=0;bottom=0;right=0;editable=1;overflow=hidden;whiteSpace=wrap;html=1;strokeColor=#E07A5F;fontColor=#393C56;" parent="xM1EwzCcll2f1tDaZkVR-89" vertex="1">
                    <mxGeometry width="30" height="30" as="geometry">
                        <mxRectangle width="30" height="30" as="alternateBounds"/>
                    </mxGeometry>
                </mxCell>
                <mxCell id="xM1EwzCcll2f1tDaZkVR-91" value="instructions&amp;nbsp; &amp;nbsp; text" style="shape=partialRectangle;connectable=0;fillColor=none;top=0;left=0;bottom=0;right=0;align=left;spacingLeft=6;overflow=hidden;whiteSpace=wrap;html=1;strokeColor=#E07A5F;fontColor=#393C56;" parent="xM1EwzCcll2f1tDaZkVR-89" vertex="1">
                    <mxGeometry x="30" width="201" height="30" as="geometry">
                        <mxRectangle width="201" height="30" as="alternateBounds"/>
                    </mxGeometry>
                </mxCell>
                <mxCell id="xM1EwzCcll2f1tDaZkVR-86" style="shape=tableRow;horizontal=0;startSize=0;swimlaneHead=0;swimlaneBody=0;fillColor=none;collapsible=0;dropTarget=0;points=[[0,0.5],[1,0.5]];portConstraint=eastwest;top=0;left=0;right=0;bottom=0;strokeColor=#E07A5F;fontColor=#393C56;" parent="xM1EwzCcll2f1tDaZkVR-52" vertex="1">
                    <mxGeometry y="240" width="231" height="30" as="geometry"/>
                </mxCell>
                <mxCell id="xM1EwzCcll2f1tDaZkVR-87" style="shape=partialRectangle;connectable=0;fillColor=none;top=0;left=0;bottom=0;right=0;editable=1;overflow=hidden;whiteSpace=wrap;html=1;strokeColor=#E07A5F;fontColor=#393C56;" parent="xM1EwzCcll2f1tDaZkVR-86" vertex="1">
                    <mxGeometry width="30" height="30" as="geometry">
                        <mxRectangle width="30" height="30" as="alternateBounds"/>
                    </mxGeometry>
                </mxCell>
                <mxCell id="xM1EwzCcll2f1tDaZkVR-88" value="cooking_time&amp;nbsp; varchar(50)" style="shape=partialRectangle;connectable=0;fillColor=none;top=0;left=0;bottom=0;right=0;align=left;spacingLeft=6;overflow=hidden;whiteSpace=wrap;html=1;strokeColor=#E07A5F;fontColor=#393C56;" parent="xM1EwzCcll2f1tDaZkVR-86" vertex="1">
                    <mxGeometry x="30" width="201" height="30" as="geometry">
                        <mxRectangle width="201" height="30" as="alternateBounds"/>
                    </mxGeometry>
                </mxCell>
                <mxCell id="xM1EwzCcll2f1tDaZkVR-83" style="shape=tableRow;horizontal=0;startSize=0;swimlaneHead=0;swimlaneBody=0;fillColor=none;collapsible=0;dropTarget=0;points=[[0,0.5],[1,0.5]];portConstraint=eastwest;top=0;left=0;right=0;bottom=0;strokeColor=#E07A5F;fontColor=#393C56;" parent="xM1EwzCcll2f1tDaZkVR-52" vertex="1">
                    <mxGeometry y="270" width="231" height="30" as="geometry"/>
                </mxCell>
                <mxCell id="xM1EwzCcll2f1tDaZkVR-84" style="shape=partialRectangle;connectable=0;fillColor=none;top=0;left=0;bottom=0;right=0;editable=1;overflow=hidden;whiteSpace=wrap;html=1;strokeColor=#E07A5F;fontColor=#393C56;" parent="xM1EwzCcll2f1tDaZkVR-83" vertex="1">
                    <mxGeometry width="30" height="30" as="geometry">
                        <mxRectangle width="30" height="30" as="alternateBounds"/>
                    </mxGeometry>
                </mxCell>
                <mxCell id="xM1EwzCcll2f1tDaZkVR-85" value="numbers_persons&amp;nbsp; varchar(10)" style="shape=partialRectangle;connectable=0;fillColor=none;top=0;left=0;bottom=0;right=0;align=left;spacingLeft=6;overflow=hidden;whiteSpace=wrap;html=1;strokeColor=#E07A5F;fontColor=#393C56;" parent="xM1EwzCcll2f1tDaZkVR-83" vertex="1">
                    <mxGeometry x="30" width="201" height="30" as="geometry">
                        <mxRectangle width="201" height="30" as="alternateBounds"/>
                    </mxGeometry>
                </mxCell>
                <mxCell id="xM1EwzCcll2f1tDaZkVR-80" style="shape=tableRow;horizontal=0;startSize=0;swimlaneHead=0;swimlaneBody=0;fillColor=none;collapsible=0;dropTarget=0;points=[[0,0.5],[1,0.5]];portConstraint=eastwest;top=0;left=0;right=0;bottom=0;strokeColor=#E07A5F;fontColor=#393C56;" parent="xM1EwzCcll2f1tDaZkVR-52" vertex="1">
                    <mxGeometry y="300" width="231" height="30" as="geometry"/>
                </mxCell>
                <mxCell id="xM1EwzCcll2f1tDaZkVR-81" style="shape=partialRectangle;connectable=0;fillColor=none;top=0;left=0;bottom=0;right=0;editable=1;overflow=hidden;whiteSpace=wrap;html=1;strokeColor=#E07A5F;fontColor=#393C56;" parent="xM1EwzCcll2f1tDaZkVR-80" vertex="1">
                    <mxGeometry width="30" height="30" as="geometry">
                        <mxRectangle width="30" height="30" as="alternateBounds"/>
                    </mxGeometry>
                </mxCell>
                <mxCell id="xM1EwzCcll2f1tDaZkVR-82" value="difficulty&amp;nbsp; &amp;nbsp;varchar(100)" style="shape=partialRectangle;connectable=0;fillColor=none;top=0;left=0;bottom=0;right=0;align=left;spacingLeft=6;overflow=hidden;whiteSpace=wrap;html=1;strokeColor=#E07A5F;fontColor=#393C56;" parent="xM1EwzCcll2f1tDaZkVR-80" vertex="1">
                    <mxGeometry x="30" width="201" height="30" as="geometry">
                        <mxRectangle width="201" height="30" as="alternateBounds"/>
                    </mxGeometry>
                </mxCell>
                <mxCell id="xM1EwzCcll2f1tDaZkVR-77" style="shape=tableRow;horizontal=0;startSize=0;swimlaneHead=0;swimlaneBody=0;fillColor=none;collapsible=0;dropTarget=0;points=[[0,0.5],[1,0.5]];portConstraint=eastwest;top=0;left=0;right=0;bottom=0;strokeColor=#E07A5F;fontColor=#393C56;" parent="xM1EwzCcll2f1tDaZkVR-52" vertex="1">
                    <mxGeometry y="330" width="231" height="30" as="geometry"/>
                </mxCell>
                <mxCell id="xM1EwzCcll2f1tDaZkVR-78" value="FK" style="shape=partialRectangle;connectable=0;fillColor=none;top=0;left=0;bottom=0;right=0;editable=1;overflow=hidden;whiteSpace=wrap;html=1;strokeColor=#E07A5F;fontColor=#393C56;" parent="xM1EwzCcll2f1tDaZkVR-77" vertex="1">
                    <mxGeometry width="30" height="30" as="geometry">
                        <mxRectangle width="30" height="30" as="alternateBounds"/>
                    </mxGeometry>
                </mxCell>
                <mxCell id="xM1EwzCcll2f1tDaZkVR-79" value="category_id&amp;nbsp; &amp;nbsp; int" style="shape=partialRectangle;connectable=0;fillColor=none;top=0;left=0;bottom=0;right=0;align=left;spacingLeft=6;overflow=hidden;whiteSpace=wrap;html=1;strokeColor=#E07A5F;fontColor=#393C56;" parent="xM1EwzCcll2f1tDaZkVR-77" vertex="1">
                    <mxGeometry x="30" width="201" height="30" as="geometry">
                        <mxRectangle width="201" height="30" as="alternateBounds"/>
                    </mxGeometry>
                </mxCell>
                <mxCell id="xM1EwzCcll2f1tDaZkVR-74" style="shape=tableRow;horizontal=0;startSize=0;swimlaneHead=0;swimlaneBody=0;fillColor=none;collapsible=0;dropTarget=0;points=[[0,0.5],[1,0.5]];portConstraint=eastwest;top=0;left=0;right=0;bottom=0;strokeColor=#E07A5F;fontColor=#393C56;" parent="xM1EwzCcll2f1tDaZkVR-52" vertex="1">
                    <mxGeometry y="360" width="231" height="30" as="geometry"/>
                </mxCell>
                <mxCell id="xM1EwzCcll2f1tDaZkVR-75" style="shape=partialRectangle;connectable=0;fillColor=none;top=0;left=0;bottom=0;right=0;editable=1;overflow=hidden;whiteSpace=wrap;html=1;strokeColor=#E07A5F;fontColor=#393C56;" parent="xM1EwzCcll2f1tDaZkVR-74" vertex="1">
                    <mxGeometry width="30" height="30" as="geometry">
                        <mxRectangle width="30" height="30" as="alternateBounds"/>
                    </mxGeometry>
                </mxCell>
                <mxCell id="xM1EwzCcll2f1tDaZkVR-76" value="photo&amp;nbsp; varchar(255)" style="shape=partialRectangle;connectable=0;fillColor=none;top=0;left=0;bottom=0;right=0;align=left;spacingLeft=6;overflow=hidden;whiteSpace=wrap;html=1;strokeColor=#E07A5F;fontColor=#393C56;" parent="xM1EwzCcll2f1tDaZkVR-74" vertex="1">
                    <mxGeometry x="30" width="201" height="30" as="geometry">
                        <mxRectangle width="201" height="30" as="alternateBounds"/>
                    </mxGeometry>
                </mxCell>
                <mxCell id="xM1EwzCcll2f1tDaZkVR-71" style="shape=tableRow;horizontal=0;startSize=0;swimlaneHead=0;swimlaneBody=0;fillColor=none;collapsible=0;dropTarget=0;points=[[0,0.5],[1,0.5]];portConstraint=eastwest;top=0;left=0;right=0;bottom=0;strokeColor=#E07A5F;fontColor=#393C56;" parent="xM1EwzCcll2f1tDaZkVR-52" vertex="1">
                    <mxGeometry y="390" width="231" height="30" as="geometry"/>
                </mxCell>
                <mxCell id="xM1EwzCcll2f1tDaZkVR-72" style="shape=partialRectangle;connectable=0;fillColor=none;top=0;left=0;bottom=0;right=0;editable=1;overflow=hidden;whiteSpace=wrap;html=1;strokeColor=#E07A5F;fontColor=#393C56;" parent="xM1EwzCcll2f1tDaZkVR-71" vertex="1">
                    <mxGeometry width="30" height="30" as="geometry">
                        <mxRectangle width="30" height="30" as="alternateBounds"/>
                    </mxGeometry>
                </mxCell>
                <mxCell id="xM1EwzCcll2f1tDaZkVR-73" value="image_caption&amp;nbsp; &amp;nbsp; text" style="shape=partialRectangle;connectable=0;fillColor=none;top=0;left=0;bottom=0;right=0;align=left;spacingLeft=6;overflow=hidden;whiteSpace=wrap;html=1;strokeColor=#E07A5F;fontColor=#393C56;" parent="xM1EwzCcll2f1tDaZkVR-71" vertex="1">
                    <mxGeometry x="30" width="201" height="30" as="geometry">
                        <mxRectangle width="201" height="30" as="alternateBounds"/>
                    </mxGeometry>
                </mxCell>
                <mxCell id="xM1EwzCcll2f1tDaZkVR-68" style="shape=tableRow;horizontal=0;startSize=0;swimlaneHead=0;swimlaneBody=0;fillColor=none;collapsible=0;dropTarget=0;points=[[0,0.5],[1,0.5]];portConstraint=eastwest;top=0;left=0;right=0;bottom=0;strokeColor=#E07A5F;fontColor=#393C56;" parent="xM1EwzCcll2f1tDaZkVR-52" vertex="1">
                    <mxGeometry y="420" width="231" height="30" as="geometry"/>
                </mxCell>
                <mxCell id="xM1EwzCcll2f1tDaZkVR-69" style="shape=partialRectangle;connectable=0;fillColor=none;top=0;left=0;bottom=0;right=0;editable=1;overflow=hidden;whiteSpace=wrap;html=1;strokeColor=#E07A5F;fontColor=#393C56;" parent="xM1EwzCcll2f1tDaZkVR-68" vertex="1">
                    <mxGeometry width="30" height="30" as="geometry">
                        <mxRectangle width="30" height="30" as="alternateBounds"/>
                    </mxGeometry>
                </mxCell>
                <mxCell id="xM1EwzCcll2f1tDaZkVR-70" value="&lt;div&gt;created_at&amp;nbsp; &amp;nbsp; &amp;nbsp; timestamp&lt;/div&gt;" style="shape=partialRectangle;connectable=0;fillColor=none;top=0;left=0;bottom=0;right=0;align=left;spacingLeft=6;overflow=hidden;whiteSpace=wrap;html=1;strokeColor=#E07A5F;fontColor=#393C56;" parent="xM1EwzCcll2f1tDaZkVR-68" vertex="1">
                    <mxGeometry x="30" width="201" height="30" as="geometry">
                        <mxRectangle width="201" height="30" as="alternateBounds"/>
                    </mxGeometry>
                </mxCell>
                <mxCell id="xM1EwzCcll2f1tDaZkVR-65" style="shape=tableRow;horizontal=0;startSize=0;swimlaneHead=0;swimlaneBody=0;fillColor=none;collapsible=0;dropTarget=0;points=[[0,0.5],[1,0.5]];portConstraint=eastwest;top=0;left=0;right=0;bottom=0;strokeColor=#E07A5F;fontColor=#393C56;" parent="xM1EwzCcll2f1tDaZkVR-52" vertex="1">
                    <mxGeometry y="450" width="231" height="30" as="geometry"/>
                </mxCell>
                <mxCell id="xM1EwzCcll2f1tDaZkVR-66" style="shape=partialRectangle;connectable=0;fillColor=none;top=0;left=0;bottom=0;right=0;editable=1;overflow=hidden;whiteSpace=wrap;html=1;strokeColor=#E07A5F;fontColor=#393C56;" parent="xM1EwzCcll2f1tDaZkVR-65" vertex="1">
                    <mxGeometry width="30" height="30" as="geometry">
                        <mxRectangle width="30" height="30" as="alternateBounds"/>
                    </mxGeometry>
                </mxCell>
                <mxCell id="xM1EwzCcll2f1tDaZkVR-67" value="popular&amp;nbsp; &amp;nbsp;tinyint(1)" style="shape=partialRectangle;connectable=0;fillColor=none;top=0;left=0;bottom=0;right=0;align=left;spacingLeft=6;overflow=hidden;whiteSpace=wrap;html=1;strokeColor=#E07A5F;fontColor=#393C56;" parent="xM1EwzCcll2f1tDaZkVR-65" vertex="1">
                    <mxGeometry x="30" width="201" height="30" as="geometry">
                        <mxRectangle width="201" height="30" as="alternateBounds"/>
                    </mxGeometry>
                </mxCell>
                <mxCell id="xM1EwzCcll2f1tDaZkVR-103" value="category" style="shape=table;startSize=30;container=1;collapsible=1;childLayout=tableLayout;fixedRows=1;rowLines=0;fontStyle=1;align=center;resizeLast=1;html=1;strokeColor=#E07A5F;fontColor=#393C56;fillColor=#F2CC8F;" parent="1" vertex="1">
                    <mxGeometry x="1100" y="650" width="210" height="150" as="geometry"/>
                </mxCell>
                <mxCell id="xM1EwzCcll2f1tDaZkVR-104" value="" style="shape=tableRow;horizontal=0;startSize=0;swimlaneHead=0;swimlaneBody=0;fillColor=none;collapsible=0;dropTarget=0;points=[[0,0.5],[1,0.5]];portConstraint=eastwest;top=0;left=0;right=0;bottom=1;strokeColor=#E07A5F;fontColor=#393C56;" parent="xM1EwzCcll2f1tDaZkVR-103" vertex="1">
                    <mxGeometry y="30" width="210" height="30" as="geometry"/>
                </mxCell>
                <mxCell id="xM1EwzCcll2f1tDaZkVR-105" value="PK" style="shape=partialRectangle;connectable=0;fillColor=none;top=0;left=0;bottom=0;right=0;fontStyle=1;overflow=hidden;whiteSpace=wrap;html=1;strokeColor=#E07A5F;fontColor=#393C56;" parent="xM1EwzCcll2f1tDaZkVR-104" vertex="1">
                    <mxGeometry width="30" height="30" as="geometry">
                        <mxRectangle width="30" height="30" as="alternateBounds"/>
                    </mxGeometry>
                </mxCell>
                <mxCell id="xM1EwzCcll2f1tDaZkVR-106" value="UniqueID" style="shape=partialRectangle;connectable=0;fillColor=none;top=0;left=0;bottom=0;right=0;align=left;spacingLeft=6;fontStyle=5;overflow=hidden;whiteSpace=wrap;html=1;strokeColor=#E07A5F;fontColor=#393C56;" parent="xM1EwzCcll2f1tDaZkVR-104" vertex="1">
                    <mxGeometry x="30" width="180" height="30" as="geometry">
                        <mxRectangle width="180" height="30" as="alternateBounds"/>
                    </mxGeometry>
                </mxCell>
                <mxCell id="xM1EwzCcll2f1tDaZkVR-107" value="" style="shape=tableRow;horizontal=0;startSize=0;swimlaneHead=0;swimlaneBody=0;fillColor=none;collapsible=0;dropTarget=0;points=[[0,0.5],[1,0.5]];portConstraint=eastwest;top=0;left=0;right=0;bottom=0;strokeColor=#E07A5F;fontColor=#393C56;" parent="xM1EwzCcll2f1tDaZkVR-103" vertex="1">
                    <mxGeometry y="60" width="210" height="30" as="geometry"/>
                </mxCell>
                <mxCell id="xM1EwzCcll2f1tDaZkVR-108" value="" style="shape=partialRectangle;connectable=0;fillColor=none;top=0;left=0;bottom=0;right=0;editable=1;overflow=hidden;whiteSpace=wrap;html=1;strokeColor=#E07A5F;fontColor=#393C56;" parent="xM1EwzCcll2f1tDaZkVR-107" vertex="1">
                    <mxGeometry width="30" height="30" as="geometry">
                        <mxRectangle width="30" height="30" as="alternateBounds"/>
                    </mxGeometry>
                </mxCell>
                <mxCell id="xM1EwzCcll2f1tDaZkVR-109" value="category_name&amp;nbsp; varchar(50)" style="shape=partialRectangle;connectable=0;fillColor=none;top=0;left=0;bottom=0;right=0;align=left;spacingLeft=6;overflow=hidden;whiteSpace=wrap;html=1;strokeColor=#E07A5F;fontColor=#393C56;" parent="xM1EwzCcll2f1tDaZkVR-107" vertex="1">
                    <mxGeometry x="30" width="180" height="30" as="geometry">
                        <mxRectangle width="180" height="30" as="alternateBounds"/>
                    </mxGeometry>
                </mxCell>
                <mxCell id="xM1EwzCcll2f1tDaZkVR-110" value="" style="shape=tableRow;horizontal=0;startSize=0;swimlaneHead=0;swimlaneBody=0;fillColor=none;collapsible=0;dropTarget=0;points=[[0,0.5],[1,0.5]];portConstraint=eastwest;top=0;left=0;right=0;bottom=0;strokeColor=#E07A5F;fontColor=#393C56;" parent="xM1EwzCcll2f1tDaZkVR-103" vertex="1">
                    <mxGeometry y="90" width="210" height="30" as="geometry"/>
                </mxCell>
                <mxCell id="xM1EwzCcll2f1tDaZkVR-111" value="" style="shape=partialRectangle;connectable=0;fillColor=none;top=0;left=0;bottom=0;right=0;editable=1;overflow=hidden;whiteSpace=wrap;html=1;strokeColor=#E07A5F;fontColor=#393C56;" parent="xM1EwzCcll2f1tDaZkVR-110" vertex="1">
                    <mxGeometry width="30" height="30" as="geometry">
                        <mxRectangle width="30" height="30" as="alternateBounds"/>
                    </mxGeometry>
                </mxCell>
                <mxCell id="xM1EwzCcll2f1tDaZkVR-112" value="category_logo&amp;nbsp; &amp;nbsp; varchar(10)" style="shape=partialRectangle;connectable=0;fillColor=none;top=0;left=0;bottom=0;right=0;align=left;spacingLeft=6;overflow=hidden;whiteSpace=wrap;html=1;strokeColor=#E07A5F;fontColor=#393C56;" parent="xM1EwzCcll2f1tDaZkVR-110" vertex="1">
                    <mxGeometry x="30" width="180" height="30" as="geometry">
                        <mxRectangle width="180" height="30" as="alternateBounds"/>
                    </mxGeometry>
                </mxCell>
                <mxCell id="xM1EwzCcll2f1tDaZkVR-113" value="" style="shape=tableRow;horizontal=0;startSize=0;swimlaneHead=0;swimlaneBody=0;fillColor=none;collapsible=0;dropTarget=0;points=[[0,0.5],[1,0.5]];portConstraint=eastwest;top=0;left=0;right=0;bottom=0;strokeColor=#E07A5F;fontColor=#393C56;" parent="xM1EwzCcll2f1tDaZkVR-103" vertex="1">
                    <mxGeometry y="120" width="210" height="30" as="geometry"/>
                </mxCell>
                <mxCell id="xM1EwzCcll2f1tDaZkVR-114" value="" style="shape=partialRectangle;connectable=0;fillColor=none;top=0;left=0;bottom=0;right=0;editable=1;overflow=hidden;whiteSpace=wrap;html=1;strokeColor=#E07A5F;fontColor=#393C56;" parent="xM1EwzCcll2f1tDaZkVR-113" vertex="1">
                    <mxGeometry width="30" height="30" as="geometry">
                        <mxRectangle width="30" height="30" as="alternateBounds"/>
                    </mxGeometry>
                </mxCell>
                <mxCell id="xM1EwzCcll2f1tDaZkVR-115" value="created_at&amp;nbsp; &amp;nbsp; &amp;nbsp; &amp;nbsp; &amp;nbsp; timestamp" style="shape=partialRectangle;connectable=0;fillColor=none;top=0;left=0;bottom=0;right=0;align=left;spacingLeft=6;overflow=hidden;whiteSpace=wrap;html=1;strokeColor=#E07A5F;fontColor=#393C56;" parent="xM1EwzCcll2f1tDaZkVR-113" vertex="1">
                    <mxGeometry x="30" width="180" height="30" as="geometry">
                        <mxRectangle width="180" height="30" as="alternateBounds"/>
                    </mxGeometry>
                </mxCell>
                <mxCell id="13" value="" style="edgeStyle=entityRelationEdgeStyle;fontSize=12;html=1;endArrow=ERoneToMany;entryX=1;entryY=0.5;entryDx=0;entryDy=0;" parent="1" source="xM1EwzCcll2f1tDaZkVR-104" target="xM1EwzCcll2f1tDaZkVR-77" edge="1">
                    <mxGeometry width="100" height="100" relative="1" as="geometry">
                        <mxPoint x="900" y="810" as="sourcePoint"/>
                        <mxPoint x="1000" y="710" as="targetPoint"/>
                    </mxGeometry>
                </mxCell>
                <mxCell id="19" value="" style="edgeStyle=entityRelationEdgeStyle;fontSize=12;html=1;endArrow=ERzeroToMany;endFill=1;exitX=0.999;exitY=0.322;exitDx=0;exitDy=0;entryX=0;entryY=0.5;entryDx=0;entryDy=0;exitPerimeter=0;" edge="1" parent="1" source="xM1EwzCcll2f1tDaZkVR-18" target="15">
                    <mxGeometry width="100" height="100" relative="1" as="geometry">
                        <mxPoint x="339.8199999999998" y="409.2299999999998" as="sourcePoint"/>
                        <mxPoint x="361.4399999999997" y="579.6599999999999" as="targetPoint"/>
                        <Array as="points">
                            <mxPoint x="380" y="450"/>
                            <mxPoint x="340" y="460"/>
                            <mxPoint x="340" y="470"/>
                            <mxPoint x="390" y="440"/>
                        </Array>
                    </mxGeometry>
                </mxCell>
                <mxCell id="22" value="" style="edgeStyle=entityRelationEdgeStyle;fontSize=12;html=1;endArrow=ERzeroToMany;endFill=1;entryX=1;entryY=0.5;entryDx=0;entryDy=0;exitX=0;exitY=0.5;exitDx=0;exitDy=0;" edge="1" parent="1" source="xM1EwzCcll2f1tDaZkVR-18" target="xM1EwzCcll2f1tDaZkVR-8">
                    <mxGeometry width="100" height="100" relative="1" as="geometry">
                        <mxPoint x="250" y="390" as="sourcePoint"/>
                        <mxPoint x="350" y="290" as="targetPoint"/>
                    </mxGeometry>
                </mxCell>
                <mxCell id="24" value="" style="edgeStyle=entityRelationEdgeStyle;fontSize=12;html=1;endArrow=ERzeroToMany;endFill=1;entryX=1;entryY=0.5;entryDx=0;entryDy=0;exitX=0;exitY=0.165;exitDx=0;exitDy=0;exitPerimeter=0;" edge="1" parent="1" source="xM1EwzCcll2f1tDaZkVR-53" target="xM1EwzCcll2f1tDaZkVR-5">
                    <mxGeometry width="100" height="100" relative="1" as="geometry">
                        <mxPoint x="690" y="400" as="sourcePoint"/>
                        <mxPoint x="210" y="150" as="targetPoint"/>
                    </mxGeometry>
                </mxCell>
                <mxCell id="23" value="" style="edgeStyle=entityRelationEdgeStyle;fontSize=12;html=1;endArrow=ERzeroToMany;endFill=1;entryX=1;entryY=0.5;entryDx=0;entryDy=0;exitX=0;exitY=0.5;exitDx=0;exitDy=0;" edge="1" parent="1" source="xM1EwzCcll2f1tDaZkVR-53" target="xM1EwzCcll2f1tDaZkVR-43">
                    <mxGeometry width="100" height="100" relative="1" as="geometry">
                        <mxPoint x="550" y="390" as="sourcePoint"/>
                        <mxPoint x="650" y="290" as="targetPoint"/>
                    </mxGeometry>
                </mxCell>
                <mxCell id="25" value="" style="edgeStyle=entityRelationEdgeStyle;fontSize=12;html=1;endArrow=ERzeroToMany;endFill=1;exitX=1;exitY=0.5;exitDx=0;exitDy=0;entryX=0;entryY=0.5;entryDx=0;entryDy=0;" edge="1" parent="1" source="xM1EwzCcll2f1tDaZkVR-18" target="xM1EwzCcll2f1tDaZkVR-59">
                    <mxGeometry width="100" height="100" relative="1" as="geometry">
                        <mxPoint x="440" y="490" as="sourcePoint"/>
                        <mxPoint x="540" y="390" as="targetPoint"/>
                    </mxGeometry>
                </mxCell>
            </root>
        </mxGraphModel>
    </diagram>
</mxfile>